<?xml version="1.0" encoding="UTF-8" standalone="no"?>
<svg
   xmlns:dc="http://purl.org/dc/elements/1.1/"
   xmlns:cc="http://creativecommons.org/ns#"
   xmlns:rdf="http://www.w3.org/1999/02/22-rdf-syntax-ns#"
   xmlns:svg="http://www.w3.org/2000/svg"
   xmlns="http://www.w3.org/2000/svg"
   viewBox="0 0 403.79999 54.133331"
   height="54.133331"
   width="403.79999"
   xml:space="preserve"
   id="svg2"
   version="1.1"><metadata
     id="metadata8"><rdf:RDF><cc:Work
         rdf:about=""><dc:format>image/svg+xml</dc:format><dc:type
           rdf:resource="http://purl.org/dc/dcmitype/StillImage" /></cc:Work></rdf:RDF></metadata><defs
     id="defs6" /><g
     transform="matrix(1.3333333,0,0,-1.3333333,0,54.133333)"
     id="g10"><g
       transform="scale(0.1)"
       id="g12"><path
         id="path14"
         style="fill:#0e0f0e;fill-opacity:1;fill-rule:evenodd;stroke:none"
         d="m 2339.95,70.1406 c -27.31,-13.8437 -75.56,-27.6797 -99.5,-17.207 -13.46,3.3633 -27.3,17.207 -37.78,23.9336 -20.57,17.207 -41.14,34.4178 -57.97,51.2458 -3.74,3.742 -7.11,7.106 -10.48,10.477 0,3.363 -6.73,3.363 -10.09,0 -10.47,-13.84 -20.58,-27.305 -31.05,-41.1486 -17.21,-13.832 -51.24,-23.9375 -71.82,-23.9375 -7.1,0 -17.2,0 -20.56,6.7344 -3.37,6.7344 0,13.8359 3.36,17.2031 6.74,6.7386 17.2,3.3676 27.3,6.7386 13.85,3.363 51.62,34.41 51.62,48.246 3.37,10.097 -27.67,16.832 -31.04,23.941 -6.73,3.363 -3.37,20.571 -3.37,23.934 6.74,23.941 58.35,3.363 58.35,30.672 0,10.472 -13.84,27.679 -17.2,34.414 -10.11,6.726 -30.67,13.836 -20.57,30.668 3.35,3.738 6.72,7.105 10.46,7.105 13.47,6.731 27.31,6.731 40.78,10.102 10.47,3.363 20.57,7.105 27.67,10.468 17.21,6.735 34.04,20.575 51.25,13.465 7.1,-3.363 10.47,-6.73 10.47,-10.097 3.37,-3.368 0,-27.305 -3.37,-31.043 0,-3.371 -3.74,-3.371 -7.1,-3.371 h 3.36 c -10.1,-10.098 -16.83,-20.571 -27.3,-23.934 -6.73,-3.363 -17.21,-3.363 -20.57,-6.734 -3.37,-3.364 -3.37,-3.364 -3.37,-7.106 3.37,0 3.37,-3.367 3.37,-3.367 3.36,0 3.36,-3.363 6.73,-3.363 0,0 3.74,0 7.11,-3.367 17.2,-3.368 34.03,6.73 54.61,-3.368 17.2,-7.105 0,-23.937 -10.1,-27.304 -17.21,-13.84 -41.14,-7.106 -51.62,-27.676 -6.73,-6.735 10.48,-20.57 17.21,-23.942 10.46,-10.097 20.57,-17.203 31.04,-27.304 10.1,-10.469 27.3,-17.203 41.14,-23.934 16.84,-10.476 41.15,-17.2108 61.72,-24.3123 6.73,-3.3633 16.83,-3.3633 23.94,-6.7344 3.37,0 6.73,-3.3711 6.73,-6.7344 l -3.36,-3.3633" /><path
         id="path16"
         style="fill:#0e0f0e;fill-opacity:1;fill-rule:evenodd;stroke:none"
         d="m 2689.29,52.9336 c -10.1,-10.4727 -27.3,-6.7344 -41.14,-6.7344 -10.11,0 -20.58,0 -30.67,3.3711 -6.73,-3.3711 -13.84,-3.3711 -20.58,-3.3711 0,0 -3.36,3.3711 -6.73,3.3711 -3.37,6.7266 -10.47,13.461 -17.21,20.5703 -6.72,10.0977 -17.2,16.8321 -23.93,27.3008 -7.11,6.7386 -34.42,47.8786 -44.51,44.5116 -7.11,0 -13.84,-17.203 -13.84,-23.937 -6.74,-6.731 -10.1,-13.836 -13.84,-23.9418 -6.74,-7.1015 -16.84,-20.5703 -27.3,-23.9336 -13.84,-7.1093 -37.79,-10.4726 -51.24,-7.1093 -7.11,3.7421 -13.84,0 -20.58,7.1093 -10.47,6.7266 3.37,20.5703 10.1,23.9336 10.48,3.3672 23.93,3.3672 31.04,6.7348 20.58,6.734 54.61,34.41 51.24,58.351 0,3.363 -3.36,10.098 -10.1,10.098 -3.74,0 -3.74,0 -7.1,0 -17.2,0 -30.67,0 -47.88,0 -3.36,0 -6.72,0 -10.46,3.738 -3.37,0 -10.1,6.734 -13.47,10.098 0,0 -3.37,3.371 -3.37,6.734 -3.74,7.11 0,20.57 10.1,24.313 6.74,3.367 13.84,0 20.57,0 3.36,0 6.73,0 10.47,0 6.74,0 13.47,0 23.94,3.367 3.37,0 6.74,3.363 13.46,3.363 10.48,3.371 20.58,0 27.68,10.102 6.74,10.472 3.37,37.777 0,44.511 -7.1,17.2 -17.2,27.676 -7.1,48.246 3.74,3.368 3.74,3.368 7.1,6.735 6.74,0 10.11,3.367 13.47,3.367 7.11,0 13.83,-3.367 20.57,-6.734 7.11,-3.368 13.84,-3.368 20.58,-6.731 0,-3.742 3.36,-3.742 3.36,-7.105 10.48,-17.207 7.11,-34.039 -6.73,-47.875 0,-3.371 -3.37,-6.735 -3.37,-13.844 -3.37,-13.465 20.58,0 23.94,0 10.48,7.109 34.41,13.844 41.14,0 v -3.363 c 3.37,-3.367 13.85,-10.102 13.85,-17.207 0,-10.102 -13.85,-16.832 -20.58,-16.832 -7.11,0 -13.84,0 -20.57,-3.743 -7.1,0 -27.68,-10.097 -31.04,-16.828 0,-7.105 0,-13.84 3.36,-20.574 10.48,-20.57 37.78,-31.043 54.98,-44.883 6.74,-3.363 13.85,-13.465 20.58,-16.828 17.2,-13.8436 30.67,-24.3123 47.87,-34.4178 7.11,-6.7266 17.2,-6.7266 23.94,-13.8359 0,-3.3633 0,-6.7344 0,-10.0977" /><path
         id="path18"
         style="fill:#0e0f0e;fill-opacity:1;fill-rule:evenodd;stroke:none"
         d="m 0,45.082 v 1.4922 c 0.371094,5.6133 2.99219,11.2227 6.73438,13.0938 13.46482,10.4726 20.57032,0 30.66792,3.3633 6.7344,0 41.1407,27.6796 44.5118,31.0429 7.1054,6.7348 13.8359,20.5738 13.8359,30.6758 13.469,48.246 -47.875,17.203 -51.6133,58.344 -3.3672,23.941 44.8828,20.57 51.6133,37.777 13.469,23.942 -10.4727,41.145 -3.3633,61.715 10.0973,30.676 65.0783,17.207 82.2853,3.371 13.465,-10.473 16.832,-27.305 20.57,-44.512 0,-10.472 -7.105,-17.203 -7.105,-27.304 -3.367,-13.84 -6.731,-24.313 -10.102,-37.774 -7.101,-23.941 -10.472,-48.254 -17.199,-72.187 -3.371,-6.7386 -3.371,-13.4691 -6.734,-20.5706 -7.11,-10.1055 -17.207,-6.7422 -27.68,-13.4688 C 116.324,63.0313 109.219,56.2969 102.484,46.1992 95.75,39.0977 85.2773,32.3633 75.1797,21.8906 57.9727,11.7891 34.0313,-8.78125 13.4609,8.42188 10.0977,18.5234 10.0977,25.6289 6.73438,32.3633 2.24609,35.3555 0.371094,40.2188 0,45.082 Z m 256.586,52.3594 c 0,6.7386 0,10.1016 -3.367,13.8436 -3.367,16.828 -3.367,41.141 -3.367,57.973 0,3.738 3.367,10.472 3.367,13.836 0,13.844 -3.367,27.304 0,41.148 3.367,10.098 13.836,20.571 13.836,34.41 0,6.735 -3.364,13.461 -6.727,20.571 -7.109,23.937 -7.109,37.402 10.098,51.242 6.73,10.101 20.57,10.101 31.043,10.101 10.097,-3.371 20.574,-6.734 27.304,-16.836 13.461,-27.675 -27.304,-37.773 -17.207,-54.98 6.735,-10.098 17.207,0 23.942,3.363 0,0 3.363,0 3.363,3.371 13.84,0 34.41,0 41.145,-13.468 3.738,-7.106 3.738,-17.203 0,-20.571 -3.368,-3.367 -6.735,-7.105 -6.735,-10.472 -13.84,-10.102 -34.41,-10.102 -47.871,-13.465 -3.367,0 -13.844,0 -17.207,-7.11 -6.734,-3.363 -6.734,-13.46 -6.734,-20.57 -3.739,-3.363 -3.739,-6.734 -7.106,-10.098 -3.367,-13.835 -3.367,-31.042 -3.367,-44.511 0,-7.106 3.367,-13.836 6.734,-13.836 10.473,-3.367 24.313,0 34.411,0 10.093,3.367 20.57,3.367 30.668,3.367 7.109,0 17.207,-6.734 20.945,-13.465 6.734,-7.105 10.101,-17.2108 6.734,-24.3123 0,-6.7344 -3.363,-16.8321 -13.84,-20.1993 -17.207,-10.4765 -78.918,0 -95.75,10.0938 -10.472,6.7422 -13.843,13.8437 -24.312,20.5742 v 0" /><path
         id="path20"
         style="fill:#0e0f0e;fill-opacity:1;fill-rule:evenodd;stroke:none"
         d="m 600.32,217.508 c -0.375,0 -0.746,0 -0.746,0 -3.746,-3.367 -3.746,-3.367 -7.109,-3.367 -13.461,-7.106 -30.668,-17.203 -44.512,-17.203 -10.098,-10.473 -3.363,-78.922 10.477,-85.653 10.101,-10.476 23.937,3.363 30.672,-7.105 6.726,-6.7386 6.726,-37.4066 6.726,-44.512 -3.363,-3.3711 -3.363,-3.3711 -6.726,-6.7344 -6.735,-3.3633 -17.207,3.3633 -20.571,3.3633 -3.371,-3.3633 -3.371,-3.3633 -3.371,-3.3633 0,-6.7344 23.942,-31.043 27.305,-34.4102 3.363,-3.3671 7.109,-6.7343 7.109,-13.46481 0,0 0.371,0 0.746,0 V 170.379 c -0.375,-0.375 -0.746,-0.746 -0.746,-1.121 -3.746,-3.363 -10.472,-6.735 -17.207,-6.735 -7.109,17.207 6.735,20.571 17.207,23.942 0,0 0.371,0 0.746,0 z m 0,130.164 v -85.656 c -0.375,0 -0.746,0 -0.746,0 -13.844,-3.364 -24.316,-10.473 -34.414,-13.836 -3.363,-3.367 -6.73,-3.367 -10.097,-6.735 -13.836,-7.105 -31.043,-7.105 -41.145,-13.84 -7.105,-3.363 -10.473,-17.207 -20.574,-17.207 -7.106,0 -10.469,3.743 -17.199,7.11 -3.372,3.363 -7.106,10.097 -7.106,16.832 -3.371,3.738 -3.371,7.105 0,10.473 3.734,20.574 27.676,13.839 41.141,13.839 10.472,3.364 24.312,6.735 34.41,10.098 10.473,3.363 23.941,6.734 34.414,13.836 3.363,0 10.098,6.734 10.098,13.469 0,0 0,3.738 -3.372,7.105 -13.835,6.731 -37.777,17.207 -20.57,34.035 3.371,3.371 13.844,10.477 20.57,10.477 3.372,3.367 10.098,0 13.844,0 0,0 0.371,0 0.746,0 z M 482.875,1.31641 c -3.363,3.74218 -6.73,7.10547 -6.73,13.83989 -3.372,6.7343 3.367,44.5117 13.464,44.5117 7.106,3.3633 17.204,-10.0977 27.676,-10.0977 0,0 17.207,0 13.469,-3.3711 C 527.383,39.0977 524.02,35.7266 517.285,28.9922 510.18,15.1563 506.813,-5.41406 482.875,1.31641 Z M 686.723,121.758 c -0.375,0 -1.121,-0.375 -1.496,-0.375 -7.106,0 -10.469,-3.367 -17.207,-6.735 0,0 -3.368,-3.363 -3.368,-7.105 0,-3.363 10.106,-20.5703 13.469,-23.9336 3.738,-3.3711 7.106,-6.7422 7.106,-10.1055 0.746,-0.7461 1.121,-1.4961 1.496,-1.8672 z m 0,109.215 v -40.024 c -0.375,-0.375 -1.121,-0.75 -1.496,-1.121 -3.368,-3.363 -7.106,-6.734 -10.469,-6.734 -3.371,-3.364 -10.106,-6.727 -13.469,-10.098 -7.109,-10.473 0,-24.308 -7.109,-31.043 0,-3.363 -6.735,-6.734 -10.098,-10.098 0,0 -7.109,0 -10.473,0 0,0 0,0 0,-3.742 7.11,-10.097 7.11,-57.9724 3.364,-75.1794 0,-3.3633 0,-10.4727 0,-13.8359 0,-6.7344 -6.731,-20.5743 -13.461,-27.3086 C 616.777,8.42188 610.051,8.42188 600.32,5.05859 V 170.379 c 6.735,6.359 13.094,9.723 19.825,16.086 0,0 0,0 0,3.363 -6.731,0 -13.09,-2.992 -19.825,-3.363 v 31.043 c 9.731,3.363 16.457,6.734 23.192,6.734 6.73,3.363 13.461,3.363 23.933,6.731 6.735,0 13.844,0 23.942,0 3.371,0 10.472,0 13.84,0 0.375,0 1.121,0 1.496,0 z m 0,68.82 v -27.68 c -0.375,0 -0.75,0 -1.496,0 -27.305,-3.363 -57.598,-3.363 -84.907,-10.097 v 85.656 c 2.989,0 6.36,-0.371 9.352,-3.367 10.473,0 20.57,3.367 27.301,0 20.57,-3.739 24.316,-27.68 10.472,-41.145 6.735,-7.105 20.575,-3.367 30.676,-3.367 3.738,0 7.106,0 7.106,0 0.375,0 1.121,0 1.496,0 z m 0,-27.68 v 27.68 c 2.996,0 5.234,0 5.234,0 13.84,0 58.352,3.367 61.719,-13.836 0,-6.734 -3.367,-10.473 -10.473,-13.844 -6.734,-3.363 -16.836,0 -27.305,0 -6.734,0 -17.207,0 -27.308,0 0,0 0,0 -1.867,0 z m 0,-81.164 v 40.024 c 6.73,0 15.711,0 19.074,-3.368 0,-3.363 0,-3.363 0,-3.363 3.367,-3.371 3.367,-3.371 3.367,-6.734 0,0 0,0 0,-3.367 0,0 -3.367,0 -3.367,-3.743 -3.363,-6.355 -9.723,-12.714 -19.074,-19.449 z m 0,-119.3123 v 50.1213 c 20.574,2.992 46.754,-0.754 56.48,-17.578 3.735,-6.7386 3.735,-10.1058 3.735,-17.2073 0,-10.1055 -10.469,-30.6758 -20.571,-37.4024 -7.105,-3.3711 -17.203,0 -24.312,3.3633 -3.364,3.3633 -10.098,10.0977 -13.465,13.8398 0,2.6172 0,2.9922 -1.867,4.8633 v 0" /><path
         id="path22"
         style="fill:#0e0f0e;fill-opacity:1;fill-rule:evenodd;stroke:none"
         d="m 1349.51,207.035 c -6.74,0 -13.84,6.735 -20.57,3.363 -6.74,-6.734 -3.37,-27.304 3.36,-34.031 3.37,-3.371 10.47,-3.371 13.84,-3.371 h 3.37 z m 0,75.551 v 61.719 c -6.74,0 -10.1,0 -13.84,0 -6.73,-3.739 -27.31,-13.84 -23.94,-23.938 3.37,-3.742 7.11,-3.742 10.47,-7.105 6.74,-3.371 10.1,-10.102 17.21,-13.469 6.73,-7.109 6.73,-13.836 10.1,-17.207 z m 0,-48.246 c -17.21,-6.735 -34.41,-13.469 -47.88,-23.942 -3.36,-3.363 -7.11,-6.734 -7.11,-13.46 -6.73,-7.11 -16.82,-17.208 -27.3,-17.208 l -3.37,-3.363 c -3.36,3.363 -3.36,3.363 -6.73,3.363 -3.37,0 -7.11,0 -7.11,3.364 -10.09,6.734 -13.46,20.57 -13.46,34.414 0,16.832 27.3,54.605 44.51,61.715 13.46,6.734 20.57,-10.473 17.21,-10.473 0,-3.363 -3.75,-10.098 -3.75,-13.84 7.11,-6.73 47.51,10.098 54.99,13.84 v -34.41 z m 0,-129.789 c -3.74,3.363 -10.1,6.734 -10.1,10.097 -3.74,3.368 -3.74,10.102 -7.11,17.207 0,3.364 0,10.098 3.37,10.098 3.36,6.735 10.1,6.735 13.84,6.735 v -44.137 z m 0,-68.8244 c -3.74,-3.3633 -10.48,-6.7344 -13.84,-6.7344 -10.1,-3.3633 -16.83,-7.1016 -23.94,-10.4688 -13.46,0 -20.57,0 -23.94,10.4688 -6.73,30.6758 13.84,34.0391 37.78,37.7812 3.37,3.3672 16.83,6.7305 23.94,10.0938 V 35.7266 Z m 0,137.2694 v 0 c 3.36,3.371 6.73,6.734 10.47,10.098 3.36,3.371 3.36,10.476 6.73,13.844 3.37,3.363 3.37,6.726 6.73,10.097 0,3.363 0,7.106 -3.36,7.106 0,3.367 -13.84,-7.106 -17.21,-7.106 h -3.36 v 0 z m 0,-137.2694 v 0 41.1406 c 0,0 3.36,0 3.36,3.3711 3.37,0 10.47,3.3711 10.47,6.7344 0,7.1015 -7.1,13.8363 -13.83,17.2073 v 0.371 44.137 0 c 0,0 0,3.738 3.36,3.738 3.37,3.371 10.47,10.097 17.21,16.832 6.73,7.109 13.84,13.836 20.57,20.57 10.1,17.207 3.36,41.145 13.84,54.985 6.73,6.73 20.57,6.73 27.3,6.73 6.74,3.367 23.95,17.207 23.95,23.941 3.36,3.739 -3.37,7.102 -6.74,7.102 -10.47,-3.363 -17.21,-7.102 -27.31,-10.473 -7.11,0 -13.83,-6.726 -20.94,-10.097 -6.74,-3.364 -13.46,-3.364 -20.2,-7.106 -10.47,-6.73 -20.57,-13.465 -31.04,-20.57 v 0 34.41 0 c 3.36,3.363 6.73,6.734 13.83,6.734 v 3.739 c -7.1,0 -10.47,3.363 -13.83,3.363 v 0 61.719 0 c 10.47,3.367 17.2,6.734 27.3,6.734 10.48,0 20.57,-3.367 27.68,-10.473 10.09,-10.101 20.57,-30.675 10.09,-40.773 -3.36,0 -6.72,-3.738 -6.72,-3.738 0,-3.371 0,-3.371 0,-3.371 13.83,0 23.93,3.371 37.77,7.109 6.74,0 13.47,0 16.84,3.367 10.46,3.367 17.2,6.731 27.67,10.102 13.47,3.363 27.31,-10.102 34.04,-17.207 10.47,-10.098 13.84,-16.832 13.84,-27.305 -10.48,-10.098 -17.2,-17.207 -30.67,-17.207 -3.74,0 -7.11,0 -10.47,0 -3.37,-3.363 -10.11,-3.363 -17.21,-3.363 -3.37,0 -6.74,0 -6.74,0 -3.35,-3.367 -10.46,-3.367 -13.83,-3.367 -3.36,0 -10.1,0 -13.47,0 -3.74,-3.368 3.37,-10.473 3.37,-17.208 0,-3.363 0,-10.097 -3.37,-13.464 -3.74,-7.106 -13.84,-10.477 -23.94,-17.203 -13.83,-7.11 -24.31,-17.208 -34.4,-31.043 0,0 -3.37,-3.372 -6.74,-3.372 0,-3.363 0,-3.363 0,-3.363 3.37,0 3.37,0 3.37,0 6.73,0 47.87,20.57 51.24,6.735 6.73,-20.575 -6.74,-30.676 -20.58,-37.782 -3.36,-3.363 -10.09,-3.363 -10.09,-6.73 -3.74,-3.367 0,-10.098 -3.74,-13.84 0,-3.363 -3.37,-10.1016 0,-10.1016 v -3.3672 c 20.94,0 58.35,20.5738 75.55,13.4688 6.73,-3.363 17.21,-10.1016 20.58,-16.8321 3.36,-10.4726 0,-23.9375 -6.74,-27.6796 -7.11,-3.3633 -17.21,-3.3633 -27.67,-3.3633 -6.73,-3.3711 -16.84,0 -27.31,-3.3711 -10.1,0 -23.94,-3.3633 -34.41,-3.3633 -3.37,-3.3633 -13.46,-6.7344 -20.2,-6.7344 -7.11,-3.7383 -10.47,-3.7383 -13.84,-7.1015 -6.73,0 -10.47,-3.3711 -17.2,-3.3711 v 0" /><path
         id="path24"
         style="fill:#0e0f0e;fill-opacity:1;fill-rule:evenodd;stroke:none"
         d="m 1668.18,333.832 v -47.875 c -6.73,-6.734 -13.84,-13.844 -17.2,-20.57 -3.37,0 -6.74,0 -6.74,0 -3.37,20.57 3.37,23.933 13.84,41.14 0,3.364 0,10.098 3.37,17.203 0,3.368 3.37,6.735 6.73,10.102 z m 0,-140.262 c 0,0 0,0 -3.36,0 0,0 0,0 -3.37,0 0,-10.476 0,-20.574 0,-31.047 v -3.363 c 3.37,0 3.37,0 3.37,0 h 3.36 v 0 -37.777 0 c -6.73,-6.735 -17.2,-10.098 -17.2,-10.098 -13.47,-13.8436 -20.57,-61.7147 -37.41,-65.0858 -3.73,10.0977 -7.1,20.5742 -3.73,27.3047 3.73,10.1055 13.83,17.207 13.83,27.3051 0,0 3.37,6.734 0,3.371 -6.73,3.363 -13.83,0 -20.57,0 -3.37,-3.371 -6.73,-3.371 -10.1,-3.371 -6.74,0 -9.35,5.613 -9.72,13.468 v 4.489 c 0.37,11.218 4.49,24.679 5.98,29.922 7.11,7.109 24.31,-3.368 31.05,-3.368 3.36,0 10.1,0 13.46,3.368 3.74,0 7.1,3.738 7.1,7.109 3.37,13.461 3.37,30.668 3.37,47.867 0,13.844 -3.37,27.309 0,37.781 3.37,6.735 6.74,10.098 10.1,10.098 10.48,-10.098 7.11,-30.672 7.11,-41.145 0,-3.363 0,-3.363 0,-3.363 3.37,0 3.37,0 3.37,-3.371 0,3.371 3.36,3.371 3.36,3.371 v 0 -13.836 c 0,0 0,0 0,0.371 z m 0,92.387 v 47.875 c 3.37,7.106 10.48,10.473 13.84,10.473 h 3.37 c 6.73,0 10.09,0 17.2,0 6.73,-3.739 17.21,0 23.94,-7.11 6.74,0 6.74,-10.097 6.74,-13.465 0,-34.41 -23.95,-23.937 -47.88,-27.675 h -3.37 c -3.36,-3.371 -7.1,-6.735 -10.47,-6.735 0,-3.363 -2.99,-3.363 -3.37,-3.363 z m 161.21,-92.012 v -24.687 c -7.11,-3.363 -13.84,-6.735 -17.21,-10.098 v -3.363 c -6.73,-17.207 -10.47,-31.047 -17.2,-48.254 -3.36,-6.734 -6.73,-13.4688 -10.1,-20.5703 -7.11,-6.7344 -17.21,-13.4688 -27.68,-13.4688 -6.73,-3.3633 -13.46,-3.3633 -16.82,0 -7.11,10.1055 20.56,23.9375 27.29,27.3051 0,3.371 3.37,6.734 3.37,10.476 6.73,13.465 10.1,27.305 10.1,44.512 0,10.098 -6.73,20.57 -6.73,30.668 3.36,3.363 6.73,7.105 10.47,7.105 13.46,3.368 20.57,-10.476 30.67,-7.105 6.36,2.246 10.1,4.484 13.84,7.48 z m 0,51.989 v -20.946 c -6.73,-4.117 -15.33,-4.863 -23.94,-7.48 -3.74,0 -10.47,-3.367 -13.83,-3.367 -3.37,-3.743 -6.74,-3.743 -10.48,-3.743 -3.37,-3.363 -6.73,-3.363 -6.73,-6.734 -6.74,0 -13.47,0 -20.58,0 -3.36,0 -6.73,10.477 -6.73,6.734 0,3.743 0,3.743 0,7.11 0,3.363 0,3.363 3.37,6.734 3.36,3.363 3.36,3.363 3.36,3.363 7.11,3.368 13.84,0 17.21,3.368 21.32,2.992 40.02,8.976 58.35,14.961 z m 0,70.691 v -47.5 c -15.33,1.492 -31.05,8.605 -31.05,23.559 0,3.371 0,7.109 3.37,13.843 3.74,3.364 10.47,6.735 13.84,10.098 4.49,0 9.35,0 13.84,0 z M 1668.18,159.16 c 3.37,0 3.37,0 3.37,0 3.37,6.735 3.37,10.098 3.37,13.836 0,3.371 -3.37,13.469 -6.74,20.203 v 13.836 c 6.74,3.363 10.48,7.106 17.21,3.363 3.36,0 6.73,-3.363 10.09,-3.363 3.74,0 3.74,0 3.74,-3.371 0,3.371 0,3.371 0,3.371 3.37,3.363 6.74,27.305 0,31.043 0,0 -7.1,0 -13.83,0 v 1.125 c -3.37,0 -7.86,0 -7.86,0 -3.37,3.742 -3.37,7.106 0,10.473 0,2.617 4.49,5.609 7.86,6.359 v 2.617 c 10.09,6.735 30.67,13.461 41.14,-3.742 0,-3.367 3.37,-6.73 3.37,-13.465 -3.37,-3.367 -3.37,-7.105 -6.73,-10.472 0,-10.102 0,-20.575 -3.37,-30.672 -3.74,-6.731 -10.48,-17.207 -10.48,-20.571 3.37,-3.363 6.74,-3.363 10.48,-3.363 3.37,0 6.73,-3.371 10.1,-3.371 -3.37,-3.738 -3.37,-7.101 -3.37,-10.473 -3.36,-6.726 -10.47,-10.097 -10.47,-20.57 0,-6.734 3.74,-13.84 3.74,-17.203 0,-10.102 0,-17.207 0,-27.3086 0,-20.5742 3.37,-44.5078 -7.11,-65.0781 -3.37,0 -6.73,0 -10.1,3.3633 -3.37,0 -10.47,10.4726 -17.2,23.9414 -10.47,17.1992 -17.21,37.7734 -6.73,41.141 0,3.371 3.36,3.371 3.36,0 0,0 3.37,0 3.37,-3.3676 3.36,-3.3672 6.73,-13.832 6.73,-17.2031 3.36,0 3.36,0 3.36,3.3711 3.74,7.1015 7.11,44.5036 -6.73,48.2456 0,0 0,0 -3.36,0 -3.37,-3.742 -10.1,-7.105 -17.21,-10.472 v 37.777 z m 161.21,109.965 c 2.25,-0.375 4.49,-0.375 6.73,-0.375 3.37,0 10.48,0 13.84,0 10.1,6.734 30.67,34.41 20.57,47.875 -3.37,0 -7.11,3.742 -10.47,3.742 -6.73,0 -13.46,0 -20.57,-3.742 -3.37,0 -3.37,0 -3.37,0 -2.24,0 -4.48,0 -6.73,0 z m 0,-44.137 v 20.946 c 2.25,0.746 4.49,1.496 6.73,2.246 3.37,0 6.74,3.363 6.74,3.363 10.47,3.367 20.56,10.473 31.04,17.207 3.36,3.363 10.1,6.734 17.21,10.473 13.47,0 27.3,-13.836 16.82,-24.313 -3.35,-6.73 -20.56,-10.097 -27.3,-10.097 -3.37,-6.735 -13.47,-6.735 -20.57,-6.735 -3.37,-7.105 -17.2,-7.105 -23.94,-10.473 h -3.36 c -1.12,-1.121 -2.25,-1.867 -3.37,-2.617 z m 0,-55.73 v 24.687 c 2.25,1.493 4.11,3.739 6.73,6.356 3.37,3.363 6.74,6.734 13.84,6.734 6.73,0 20.57,0 20.57,-10.097 0,-7.11 -13.84,-13.844 -13.84,-20.571 -6.73,-10.472 -3.36,-48.254 0,-58.351 0,-6.731 3.37,-10.473 3.37,-13.836 7.1,-10.1058 34.41,-20.5706 44.52,-10.1058 7.09,10.1058 7.09,20.5738 10.46,27.3088 3.37,3.367 6.73,3.367 10.1,3.367 0,0 3.37,0 3.37,-3.367 3.74,-6.735 10.47,-47.8791 10.47,-54.6096 -3.36,-7.1054 -10.47,-10.4765 -17.21,-17.2031 -13.84,-3.3711 -27.3,0 -41.14,6.7266 -17.21,6.7344 -37.77,27.3125 -44.51,44.5121 0,3.371 0,6.734 0,6.734 -3.36,17.207 -3.36,41.145 -3.36,54.98 0,3.372 3.36,6.735 0,6.735 -2.62,0 -3.37,0 -3.37,0 v 0" /><path
         id="path26"
         style="fill:#0e0f0e;fill-opacity:1;fill-rule:evenodd;stroke:none"
         d="m 2857.23,248.18 h -1.87 c 0.75,0 1.12,0 1.87,0 z m 9.73,136.894 c -8.23,-8.601 -1.51,-29.547 -9.73,-37.402 h -3.37 c -3.37,-3.367 -13.46,-3.367 -17.2,-3.367 -3.36,0 -3.36,-10.473 -3.36,-10.473 3.36,-3.367 3.36,-6.734 3.36,-10.102 3.74,-7.105 -6.73,-20.57 7.1,-23.937 3.37,0 6.73,3.367 10.1,3.367 3.37,0 3.37,0 6.73,0 3.75,0 -3.36,-7.105 -3.36,-7.105 h -3.37 c -3.37,0 -10.1,0 -10.1,-3.371 -7.1,-6.727 0,-17.2 0,-20.571 -3.36,-6.726 -10.46,-13.461 -13.83,-17.203 0,-3.367 -3.37,-6.73 -3.37,-10.097 h -3.37 c -3.74,0 -3.74,10.097 -3.74,13.839 0,3.364 0,10.098 0,13.461 0,3.371 0,7.11 0,10.473 3.74,3.371 3.74,10.098 3.74,17.207 0,3.367 0,10.098 0,16.832 0,3.742 0,10.473 3.37,13.84 0,6.73 -7.11,17.207 -13.84,20.574 -6.73,3.363 -20.58,0 -23.94,-10.473 0,-6.734 6.73,-13.468 6.73,-20.199 0,-7.105 0,-10.476 0,-17.207 0,-7.105 3.74,-13.84 3.74,-20.574 0,-3.363 0,-10.473 0,-13.836 0,-6.734 0,-17.207 0,-23.937 0,-3.368 -3.74,-10.473 -7.11,-10.473 -3.36,-3.367 -6.72,0 -10.09,3.738 0,3.367 0,6.735 0,10.102 0,13.836 -3.36,23.933 -3.36,37.777 3.36,17.203 -10.48,47.875 -24.32,58.348 -3.37,0 -6.73,3.367 -10.1,0 0,-3.739 0,-7.11 0,-10.473 3.37,-13.465 6.73,-27.305 13.84,-37.777 0,-6.735 0,-10.098 0,-13.469 3.37,-7.102 3.37,-10.473 6.74,-17.199 0,-10.477 0,-20.574 0,-31.047 0,-6.735 3.36,-10.098 3.36,-16.832 0,0 0,0 -3.36,0 -10.48,0 -10.48,27.305 -20.58,20.57 -10.85,-4.488 -25.81,-34.781 -27.67,-57.223 v -8.234 c 1.12,-9.344 5.23,-16.078 13.83,-16.824 10.47,-3.371 37.78,23.933 44.52,30.668 7.1,3.363 13.83,7.105 17.19,10.473 7.11,3.363 10.48,10.097 17.21,10.097 6.74,3.363 17.21,7.106 23.95,7.106 7.1,3.367 10.46,6.73 17.19,10.101 0,3.363 3.37,3.363 3.37,3.363 3.37,3.368 6.73,6.735 10.48,6.735 0.37,0.746 1.49,1.125 2.62,1.496 V 385.074 Z M 2853.86,5.05859 c -3.37,0 -6.73,0 -6.73,0 -17.2,10.09771 -44.51,34.03911 -47.88,54.60941 0,0 -3.74,3.3633 0,3.3633 0,3.7421 0,3.7421 0,3.7421 10.1,6.7305 16.84,0 27.31,0 6.74,0 10.1,0 13.84,3.3672 6.73,0 10.09,3.3633 13.46,3.3633 6.73,3.3633 6.73,10.1055 10.48,20.5703 0,6.7348 0,17.2108 -3.75,20.5738 0,0 -3.36,3.368 -6.73,3.368 v 0.75 c -20.94,1.492 -56.85,-20.2035 -76.68,-3.743 -3.36,3.364 -6.73,10.098 -6.73,13.84 3.37,6.731 6.73,6.731 13.84,10.098 6.74,0 13.47,0 20.58,0 10.1,0 30.66,0 41.14,3.367 4.48,1.117 6.73,4.113 7.85,7.481 v 26.558 c 3.37,3.363 3.37,6.727 6.73,10.098 -3.36,0 -3.36,0 -3.36,0 -3.37,0 -3.37,0 -3.37,0 -3.37,-3.371 -6.73,-3.371 -10.1,-3.371 -7.1,-3.364 -13.83,-6.727 -20.57,-10.098 -10.47,-3.738 -27.68,6.734 -20.57,16.832 0,3.742 3.37,7.11 6.73,7.11 10.1,0 20.58,0 31.05,3.363 6.73,0 10.09,3.363 13.46,3.363 5.62,2.625 8.61,3.371 13.1,4.867 V 14.0352 c -4.49,-4.11332 -9.36,-7.47661 -13.1,-8.97661 z m 13.1,230.77741 c 4.48,1.121 12.33,-0.75 17.95,2.242 6.73,3.367 10.09,10.102 16.82,10.102 7.11,0 13.85,-17.207 24.32,-17.207 13.47,-6.731 85.65,0 99.12,7.105 3.37,3.367 3.37,10.102 3.37,13.465 0,7.109 0,13.844 -3.37,17.207 -6.73,10.473 -27.3,10.473 -37.77,6.734 -6.74,-3.371 -16.84,-6.734 -23.95,-10.097 -6.73,0 -10.1,3.363 -13.46,3.363 h -3.74 c 3.74,3.363 7.1,10.473 7.1,13.836 3.37,6.734 6.74,13.469 10.1,20.574 3.37,6.731 10.48,17.207 10.48,27.305 3.36,6.73 6.73,17.207 10.1,23.937 7.1,10.477 27.67,23.942 17.21,41.145 -3.37,3.367 -6.74,6.734 -10.11,6.734 -7.1,3.739 -24.31,3.739 -27.68,3.739 -10.1,-3.739 -13.46,-13.836 -23.93,-20.571 -3.37,0 -3.37,-3.742 -6.74,-3.742 -3.36,-3.363 -3.36,-3.363 -3.36,-6.73 0,-3.368 6.73,-6.735 10.1,-10.098 3.37,-3.742 3.37,-20.574 0,-24.313 -6.74,-10.101 -41.15,3.739 -41.15,-10.101 3.36,-13.84 20.58,-20.574 31.05,-27.305 -3.37,-13.84 -23.94,-7.105 -31.05,-17.203 0,0 0,-3.371 0,-6.734 3.36,-3.739 13.84,-7.11 13.84,-17.207 -3.37,-7.106 -23.93,-7.106 -27.3,0 v 3.371 l -3.74,3.363 c 0,0 0,3.363 0,6.734 0,3.739 0,7.102 0,10.473 3.74,10.098 20.56,27.305 13.83,37.773 -3.36,3.368 -6.72,3.368 -10.09,6.735 -3.74,3.367 -3.74,6.73 0,10.101 3.37,13.836 13.46,7.106 20.57,17.207 6.73,7.106 3.36,23.934 -3.75,27.676 -6.73,3.367 -16.82,3.367 -23.93,3.367 -5.24,0 -8.61,-1.496 -10.84,-3.742 z m 0,-27.305 c 1.12,0.75 2.62,1.121 4.11,1.867 6.73,3.743 13.84,10.473 23.93,13.844 6.73,6.731 27.31,3.363 34.42,-3.371 3.36,-3.363 0,-10.473 -3.37,-13.836 -3.74,-6.734 -10.47,-6.734 -17.21,-10.097 -7.11,-3.368 -31.04,-27.68 -31.04,-34.415 13.84,-10.097 34.41,3.372 48.25,6.735 3.37,3.738 10.1,3.738 16.84,0 h 7.1 c 6.73,-6.735 10.1,-13.461 13.46,-20.57 -10.1,-16.833 -17.2,-10.098 -34.03,-10.098 -3.37,-3.371 -10.47,-3.371 -17.21,-6.735 -3.37,0 -10.48,0 -13.84,-3.742 -6.73,-6.73 0,-27.304 0,-34.0388 C 2895,90.7109 2895,83.6094 2895,80.2383 c 3.37,-3.3711 3.37,-10.0977 0,-13.4649 5.24,-10.8476 -11.96,-37.7812 -28.04,-52.7382 v 194.4958 0" /><path
         id="path28"
         style="fill:#0e0f0e;fill-opacity:1;fill-rule:evenodd;stroke:none"
         d="m 904.41,196.938 c 0,6.726 6.735,10.097 6.735,17.203 3.363,5.984 6.355,9.351 9.347,12.343 0.375,0.375 0.746,0.75 1.117,1.121 h 1.875 c 10.102,3.368 13.465,-13.464 13.465,-20.57 3.739,-6.734 0,-17.207 0,-23.941 -6.734,3.371 -10.097,10.476 -13.465,10.476 h -1.875 v 3.368 c -0.371,0 -0.742,0 -1.117,-0.375 -0.375,0 -0.375,0 -0.375,0 -8.972,-1.5 -8.972,-17.208 -8.972,-23.567 0,-3.738 -3.368,-7.101 -3.368,-10.473 -6.738,6.735 -6.738,23.942 -3.367,34.415 z m -17.207,61.714 c 0,3.364 10.473,3.364 13.836,6.735 6.738,0 13.844,3.363 17.207,3.363 h 2.246 c 1.117,0 1.117,0 1.117,0 13.844,3.363 34.039,10.473 44.512,17.207 6.734,6.727 6.734,20.57 6.734,27.305 -3.363,7.105 -6.734,13.836 -10.097,13.836 -7.11,3.367 -17.207,0 -23.942,3.367 -7.101,0 -10.464,3.367 -17.207,3.367 h -1.117 c -19.453,-4.488 -19.824,-37.777 -29.922,-54.609 -6.73,-7.11 -27.304,-17.207 -27.304,-24.313 0,-10.097 6.734,-16.832 10.468,-20.57 3.371,-6.735 6.735,-13.469 6.735,-20.199 6.734,-17.203 0,-31.047 -3.364,-48.246 v -17.207 c -3.371,-10.098 -17.207,-16.833 -27.679,-16.833 -6.731,-3.742 -16.832,0 -20.574,-3.742 -6.735,-3.363 -6.735,-6.73 -10.098,-10.097 -6.734,-13.836 -13.836,-23.9418 -3.363,-34.4066 0,0 17.203,3.3633 20.57,3.3633 6.734,3.7382 10.098,7.1015 17.203,10.4687 3.367,0 3.367,3.3676 6.734,3.3676 17.207,-6.7348 -10.472,-51.2387 20.571,-65.0824 6.734,10.4726 10.101,41.1406 17.207,58.3476 0,3.3672 6.734,13.4688 10.101,17.2108 2.989,0 8.977,2.617 12.715,5.61 0.375,0.375 0.746,0.746 1.117,1.121 v 1.496 c 3.746,3.738 8.981,9.726 11.977,15.707 3.363,0 3.363,0 3.363,0 3.739,0 3.739,-17.203 3.739,-20.571 3.371,0 0,-3.363 0,-3.363 3.371,-3.742 0,-31.0467 -3.739,-34.4178 -3.363,0 -10.097,20.5742 -13.465,23.9418 0,0 0,0 -1.875,0 0,0 0,0 -0.371,0 0,0 -0.371,0 -0.746,0 -0.375,0 -0.375,0 -0.375,0 v -0.375 c -1.871,-0.7465 -1.871,-3.7387 -1.871,-6.3598 0,-5.6094 0,-8.9726 1.871,-13.8359 v -3.3711 c 0,-0.3711 0,-0.7461 0.375,-1.1172 3.363,-9.7266 6.36,-16.4609 9.723,-26.1797 0,-7.1094 0,-17.207 3.371,-20.5781 3.363,-7.1016 13.836,-13.8359 20.57,-7.1016 20.571,17.2071 10.473,75.5508 10.473,99.4924 0,6.73 3.363,17.207 3.363,27.305 0,13.835 -3.363,27.679 -3.363,41.14 0,3.742 3.363,10.473 3.363,13.836 3.371,20.578 6.735,51.246 -17.199,58.352 -6.734,3.371 -17.207,3.371 -23.941,0 -3.368,0 -3.368,-3.364 -6.36,-6.356 -0.375,-0.375 -0.375,-0.375 -0.375,-0.75 v -1.492 c -3.738,-3.742 -9.351,-8.98 -12.34,-11.973 0,-7.105 -3.367,-10.472 -6.738,-13.84 -3.363,3.368 -6.726,10.473 -10.469,13.84 -3.367,3.368 -10.101,13.465 -3.367,17.207 z M 1192.04,73.5039 c 0,10.1055 -3.37,20.5703 -10.47,30.6761 0,7.105 -3.37,17.203 -6.74,23.933 -3.36,3.742 -7.11,7.106 -10.47,7.106 0,-3.364 0,-3.364 0,-3.364 0,-7.105 -3.37,-31.046 -6.73,-37.7808 -3.37,-7.1015 -37.78,6.7348 -44.51,10.1058 -3.37,3.363 -10.47,7.105 -10.47,13.836 -6.74,10.097 -10.1,34.41 -6.74,47.879 3.37,17.199 37.78,48.246 3.37,51.613 -10.1,0 -17.2,-3.367 -23.94,-10.473 0,0 0,0 -0.37,0 -6.74,-3.738 -13.1,-10.097 -19.83,-13.465 -10.1,-3.742 -17.2,-7.105 -23.93,-7.105 -3.37,0 -6.74,0 -6.74,0 -2.99,-5.988 -3.36,-14.961 -5.98,-21.695 -0.37,-0.747 -0.75,-1.493 -1.12,-2.247 -6.74,-17.203 -13.47,-34.41 -20.577,-47.875 -3.363,-10.468 -3.363,-20.5738 -6.73,-31.0386 -3.368,-3.3711 -6.735,-13.4688 -6.735,-16.836 0,-7.1054 3.367,-7.1054 10.102,-10.4765 10.47,3.3711 17.2,10.4765 23.94,20.5703 0.37,0.7539 0.75,1.5 1.12,1.875 6.73,13.0937 13.09,26.1838 16.08,35.9058 7.11,17.207 3.37,47.875 23.94,54.61 3.36,0 7.11,0 10.1,-3.363 v -17.207 c 3.37,-20.204 0,-40.399 6.36,-57.2271 0.37,-0.3789 0.37,-0.75 0.37,-0.75 0,-3.7382 0,-3.7382 3.37,-7.1015 3.37,-13.4688 48.25,-37.4102 65.08,-44.5117 7.1,0 17.2,0 20.57,3.3632 7.11,0 13.84,0 20.57,3.7383 7.11,6.7344 10.48,20.5742 7.11,27.3047 z M 1017.37,214.141 h 1.12 c 16.83,3.738 30.29,13.843 43.38,20.199 3.37,2.992 8.23,5.984 11.98,6.734 0.37,0.371 0.74,0.371 1.12,0.371 0.37,0 0.37,0 0.37,0 v 0.746 c 12.72,2.993 16.09,-0.371 29.55,-0.371 10.1,0 27.3,3.364 37.4,10.473 3.75,3.367 10.47,10.098 7.11,13.469 -3.36,13.832 -44.51,-13.469 -54.99,-3.371 0,0 0,0 -3.36,3.371 h 3.36 l 3.37,3.363 c 3.74,3.742 10.48,10.469 13.84,13.84 6.73,20.57 -13.84,30.668 -30.67,30.668 0,0 -2.62,0 -5.61,0 v 2.992 c 0,0 0,0 -0.37,0 -6.74,0 -16.46,-3.363 -23.19,-3.363 -6.74,-3.371 -30.67,-17.207 -27.31,-30.676 0,-10.473 23.94,-10.473 20.57,-23.934 -3.36,-7.109 -10.47,-7.109 -17.2,-10.472 -3,0 -6.36,-2.617 -9.35,-3.367 h -1.12 c -6.74,-3.368 -16.83,-10.473 -16.83,-20.571 0,-6.734 3.36,-10.101 6.73,-13.844 3.36,3.743 6.73,3.743 10.1,3.743" /></g></g></svg>